<?xml version="1.0" encoding="utf-8"?>
<!-- Generator: Adobe Illustrator 19.1.0, SVG Export Plug-In . SVG Version: 6.00 Build 0)  -->
<svg version="1.1" id="Layer_1" xmlns:ev="http://www.w3.org/2001/xml-events"
	 xmlns="http://www.w3.org/2000/svg" xmlns:xlink="http://www.w3.org/1999/xlink" x="0px" y="0px" viewBox="-456 299 250 310"
	 enable-background="new -456 299 250 310" xml:space="preserve">
<path fill="#FAD347" d="M-340.307,386.469c2.728-8.615,11.011-16.625,15.49-21.219c6.074-6.232,13.868-28.428-0.475-38.689
	c-14.342-10.262-35.765-3.598-39.759,12.638c-2.718,11.052,2.13,13.096-1.817,17.867c-3.277,3.962-15.843,2.918-20.63,15.367
	c-4.402,11.447,2.127,15.389,0.074,20.905c-1.877,5.046-13.95,9.358-12.823,22.178c1.689,19.204,25.839,23.422,44.381,15.611
	C-337.323,423.315-343.035,395.084-340.307,386.469z"/>
<path fill="#0194B8" d="M-333.085,468.508c0,0-15.699,35.653-23.558,43.02c-7.858,7.366-47.157,25.182-53.417,25.932
	c-1.958,0.234-4.415-0.17-6.839-0.961c-2.281,1.476-1.791,2.705-0.964,7.706c0.871,5.267,5.591,7.238,5.102,9.293
	c-0.489,2.056-7.539-2.879-9.903-6.745c-1.367-2.235,0.487-6.722-0.3-7.345c-0.787-0.623-3.262,3.107-4.502,1.949
	s-0.211-2.287,1.651-4.197c0.817-0.839,2.362-1.952,3.839-2.937c-3.048-1.794-5.185-4.023-4.74-5.907
	c0.974-4.118,10.493-3.735,12.004-4.946c1.511-1.212-0.556-4.767,4.652-7.645c5.208-2.878,6.739,0.392,10.953-2.099
	c4.215-2.49,9.276-8.233,13.505-11.391c4.229-3.159,10.173-5.696,12.604-8.694c2.431-2.999,9.152-37.998,12.304-50.065
	c3.152-12.067,12.713-16.001,24.608-10.493C-324.191,438.492-333.085,468.508-333.085,468.508z"/>
<path fill="#F57F3F" d="M-274.683,444.375c0,0,1.632,2.087,2.954,2.487c1.322,0.401,2.022-1.399,2.022-1.399
	s1.293,0.772,2.488-0.155c1.195-0.928-1.193-6.518-0.311-6.996c0.881-0.478,2.915-1.265,3.576-2.332
	c0.662-1.068,1.325-3.027,0.467-3.265s-1.623,1.568-3.732,2.176c-2.11,0.609-13.996,4.82-13.996,4.82s1.001,4.351,2.488,6.219
	C-275.82,449.579-274.683,444.375-274.683,444.375z"/>
<path fill="#F7B543" d="M-345.593,351.503c-1.851-6.018-4.141-14.121-2.746-16.939c1.561-3.154,6.873-6.408,12.167-6.876
	C-325.096,337.535-336.727,356.458-345.593,351.503z"/>
<path fill="#F5973F" d="M-321.324,363.335c0.587,0.301,1.18,0.618,1.775,0.952c-0.874,1.68-3.372,4.422-10.458,5.179
	c-10.413,1.111-16.013-1.733-18.484-3.602c0.501-0.371,0.99-0.736,1.466-1.115c3.606-2.874,3.914-3.607,3.367-6.686
	c-0.183-1.031-1.003-3.532-1.935-6.56c1.636-1.754,3.314-3.968,4.787-6.724c-1.164-0.319-2.66-1.332-3.005-3.094
	c-0.662-3.376,2.818-3.85,3.738-3.262c0.424,0.27,0.748,1.458,0.973,2.66c2.197-5.457,2.824-10.17,2.928-13.395
	c2.352-0.208,4.701,0.133,6.715,1.278c2.731,1.552,4.401,4.67,5.42,7.726c1.28,0.308,2.307,0.642,2.411,0.935
	c0.118,0.337-0.576,1.509-1.439,2.779c0.308,1.545,0.46,2.847,0.531,3.604c0.298,3.17-4.365,6.192-5.723,7.629
	c-1.358,1.438-0.241,5.436,0.43,7.739C-327.157,361.682-324.135,361.894-321.324,363.335z"/>
<path fill="#00A6CE" d="M-241.754,552.126c-2.962,2.232-8.082,2.429-8.005,3.808c0.077,1.38,2.486,1.823,1.449,3.02
	c-1.037,1.196-6.352-2.594-7.966-4.92c-0.352-0.507-0.806-1.029-1.324-1.556c-2.077,3.332-5.094,5.252-6.976,4.768
	c-3.44-0.886-4.259-7.735-4.82-9.795c-0.562-2.059-2.702-2.221-5.598-2.798c-2.897-0.578-5.681-5.266-6.221-8.396
	c-0.54-3.129-2.347-3.601-6.686-6.529c-4.34-2.929-8.913-17.783-19.905-25.964c-10.991-8.18-48.256-38.368-52.591-50.005
	c-4.093-10.987,7.626-35.362,8.948-38.051c2.823,1.442,13.379,6.536,24.827,8.3c9.564,1.474,15.993,0.619,18.532,0.123
	c-4.548,11.77-9.668,21.021-9.668,21.021s3.958,4.541,15.861,21.611c11.904,17.069,25.949,41.025,29.702,48.195
	c3.752,7.17,14.98,17.771,16.638,26.896c0.358,1.968,0.302,3.843-0.041,5.567c1.298,1.401,2.612,2.51,3.572,2.588
	c7.336,0.601,15.929-8.019,16.269-6.076C-235.418,545.876-239.828,550.674-241.754,552.126z"/>
<path fill="#0194B8" d="M-317.758,445.152c-4.444-6.209-8.708-13.059-8.708-13.059s5.664,3.252,11.35,7.951
	C-316.698,443.237-317.758,445.152-317.758,445.152z"/>
<path d="M-326.622,424.008c-11.448-1.764-22.004-6.858-24.827-8.3c0.078-0.159,0.122-0.246,0.122-0.246s-11.42-27.485-7.795-36.073
	c3.546-8.402,7.334-11.083,10.631-13.525c2.471,1.869,8.071,4.713,18.484,3.602c7.086-0.757,9.584-3.499,10.458-5.179
	c6.564,3.681,13.454,9.561,17.304,22.23c3.075,10.12-1.07,25.255-5.845,37.614C-310.629,424.627-317.058,425.482-326.622,424.008z"
	/>
<path fill="#1E2E4D" d="M-323.817,410.67c-5.67-0.653-10.216,0.261-15.195,3.055c-2.981,1.674-5.861,2.906-8.781,3.728
	c-0.917-0.412-1.711-0.786-2.362-1.102c2.888-0.632,5.658-1.77,8.663-3.458c6.081-3.412,12.39-4.784,19.639-3.949
	c7.647,0.88,12.334-0.318,18.332-3.686c0.431-0.242,0.857-0.471,1.281-0.689c-0.154,0.808-0.323,1.62-0.504,2.434
	C-309.614,410.521-315.853,411.586-323.817,410.67z M-301.913,401.752c-7.563,4.244-14.16,5.571-22.776,4.58
	c-5.671-0.653-10.217,0.261-15.195,3.055c-4.097,2.3-8.001,3.767-12.083,4.48c-0.175-0.442-0.379-0.968-0.608-1.566
	c3.463-0.534,6.673-1.76,10.211-3.746c6.081-3.412,12.389-4.784,19.639-3.949c7.647,0.88,12.333-0.319,18.332-3.686
	c0.993-0.557,1.966-1.053,2.926-1.489c-0.079,0.737-0.175,1.482-0.284,2.231C-301.805,401.692-301.859,401.721-301.913,401.752z
	 M-301.244,396.594c-0.501,0.251-1.013,0.524-1.542,0.82c-7.562,4.244-14.159,5.571-22.776,4.58
	c-5.671-0.654-10.217,0.26-15.195,3.055c-4.339,2.436-8.462,3.938-12.809,4.599c-0.185-0.506-0.376-1.036-0.572-1.588
	c3.73-0.473,7.129-1.725,10.901-3.843c6.081-3.412,12.39-4.784,19.639-3.948c7.647,0.879,12.334-0.319,18.332-3.687
	c1.391-0.78,2.741-1.439,4.075-1.984C-301.192,395.254-301.21,395.92-301.244,396.594z M-303.673,393.001
	c-7.563,4.245-14.16,5.572-22.777,4.58c-5.67-0.653-10.216,0.261-15.194,3.055c-4.548,2.554-8.86,4.082-13.441,4.69
	c-0.177-0.526-0.355-1.063-0.533-1.61c3.965-0.411,7.523-1.682,11.494-3.911c6.081-3.413,12.389-4.785,19.639-3.949
	c7.647,0.879,12.333-0.318,18.332-3.687c1.592-0.894,3.131-1.628,4.654-2.214c0.085,0.597,0.155,1.204,0.204,1.823
	C-302.061,392.132-302.848,392.538-303.673,393.001z M-302.009,387.368c-0.816,0.37-1.655,0.8-2.537,1.295
	c-7.562,4.244-14.159,5.571-22.776,4.58c-5.67-0.653-10.217,0.261-15.195,3.056c-4.714,2.646-9.174,4.191-13.943,4.75
	c-0.165-0.538-0.327-1.081-0.487-1.628c4.15-0.359,7.828-1.64,11.95-3.954c6.081-3.413,12.389-4.785,19.639-3.949
	c7.647,0.879,12.334-0.319,18.332-3.686c1.543-0.867,3.037-1.582,4.514-2.159c0.09,0.279,0.18,0.558,0.267,0.844
	C-302.16,386.796-302.083,387.081-302.009,387.368z M-305.418,384.326c-7.563,4.244-14.16,5.57-22.777,4.579
	c-5.67-0.654-10.216,0.26-15.194,3.056c-4.833,2.712-9.399,4.268-14.305,4.791c-0.146-0.548-0.287-1.097-0.424-1.645
	c4.273-0.323,8.028-1.609,12.249-3.978c6.08-3.413,12.389-4.785,19.639-3.949c7.646,0.88,12.333-0.319,18.331-3.686
	c1.32-0.741,2.602-1.37,3.869-1.898c0.23,0.538,0.454,1.088,0.67,1.657C-304.025,383.57-304.707,383.926-305.418,384.326z
	 M-306.306,379.912c-7.562,4.246-14.159,5.572-22.776,4.58c-5.671-0.653-10.217,0.261-15.195,3.056
	c-4.89,2.745-9.506,4.304-14.478,4.809c-0.119-0.557-0.229-1.11-0.332-1.656c4.307-0.312,8.083-1.6,12.33-3.985
	c6.081-3.413,12.389-4.785,19.639-3.949c7.647,0.88,12.334-0.318,18.332-3.686c0.955-0.537,1.891-1.014,2.816-1.438
	c0.295,0.524,0.583,1.063,0.864,1.623C-305.498,379.468-305.897,379.683-306.306,379.912z M-329.955,380.154
	c-5.67-0.653-10.216,0.261-15.195,3.056c-4.855,2.725-9.441,4.282-14.373,4.798c-0.076-0.568-0.138-1.123-0.187-1.665
	c4.203-0.343,7.915-1.627,12.081-3.965c6.08-3.413,12.389-4.784,19.638-3.949c7.647,0.88,12.334-0.319,18.332-3.686
	c0.456-0.256,0.908-0.498,1.356-0.728c0.371,0.505,0.736,1.03,1.093,1.577C-314.759,379.822-321.35,381.144-329.955,380.154z
	 M-322.057,419.42c-5.216-0.6-9.48,0.126-14.005,2.421c-0.87-0.259-1.72-0.528-2.546-0.803c5.736-2.967,11.711-4.127,18.515-3.343
	c6.17,0.71,10.413,0.066,14.973-1.978c-0.228,0.717-0.462,1.43-0.701,2.14C-310.926,419.665-315.991,420.118-322.057,419.42z
	 M-320.965,413.357c7.27,0.837,11.865-0.207,17.456-3.206c-0.206,0.787-0.421,1.574-0.646,2.36
	c-5.997,2.636-11.706,3.384-18.774,2.572c-5.671-0.655-10.217,0.26-15.195,3.055c-1.204,0.676-2.391,1.28-3.572,1.814
	c-0.822-0.306-1.61-0.611-2.358-0.911c1.128-0.495,2.271-1.073,3.45-1.735C-334.523,413.894-328.215,412.522-320.965,413.357z
	 M-328.863,374.091c7.411,0.853,12.041-0.247,17.78-3.381c0.443,0.461,0.88,0.944,1.31,1.449c-6.862,3.51-13.098,4.573-21.054,3.658
	c-5.671-0.655-10.217,0.26-15.195,3.055c-4.669,2.621-9.089,4.161-13.807,4.734c0.007-0.59,0.04-1.153,0.099-1.683
	c3.859-0.44,7.346-1.704,11.228-3.883C-342.421,374.628-336.113,373.256-328.863,374.091z M-319.22,422.033
	c4.938,0.568,8.641,0.269,12.26-0.921c-0.234,0.645-0.471,1.286-0.71,1.919c-4.214,1.097-8.526,1.302-13.514,0.727
	c-2.4-0.276-4.598-0.271-6.713,0.038c-1.319-0.232-2.622-0.505-3.899-0.808C-327.853,421.847-323.717,421.515-319.22,422.033z
	 M-331.715,371.404c-5.67-0.654-10.217,0.261-15.195,3.055c-4.073,2.287-7.956,3.751-12.012,4.469
	c0.28-0.646,0.561-1.259,0.844-1.838c2.898-0.631,5.674-1.77,8.688-3.463c3.92-2.2,7.936-3.55,12.236-4.009
	c1.829,0.138,3.882,0.138,6.184-0.059c0.403,0.033,0.81,0.072,1.219,0.119c6.277,0.722,10.56,0.043,15.21-2.085
	c0.514,0.401,1.023,0.825,1.529,1.271C-318.983,371.476-324.675,372.214-331.715,371.404z M-343.856,368.28
	c-1.298,0.484-2.597,1.095-3.926,1.841c-2.867,1.609-5.639,2.811-8.444,3.632c0.563-0.889,1.127-1.677,1.689-2.381
	c1.397-0.568,2.807-1.259,4.275-2.083c1.358-0.762,2.728-1.422,4.117-1.979C-345.478,367.646-344.719,367.977-343.856,368.28z
	 M-317.109,365.76c-1.632,0.536-3.267,0.935-4.936,1.202c1.036-0.702,1.711-1.442,2.15-2.095c0.307-0.078,0.612-0.164,0.916-0.255
	C-318.357,364.973-317.732,365.354-317.109,365.76z"/>
<path fill="#C0C8A0" d="M-309.827,394.314l-6.376-15.081l22.704,3.11l6.73,13.761c0,0,0.283,6.924-11.706,6.45
	C-307.556,402.194-309.827,394.314-309.827,394.314z"/>
<path fill="#D7E0EB" d="M-309.359,375.918l20.358-0.726l5.453,27.052l-19.732,3.419L-309.359,375.918z"/>
<path fill="#D7E0EB" d="M-286.657,398.356l9.019-18.345l19.749,4.819l-7.309,16.014L-286.657,398.356z"/>
<path fill="#504968" d="M-304.974,380.414l13.491-0.809l2.235,10.4l-13.34,1.348L-304.974,380.414z"/>
<path fill="#E95754" d="M-292.072,385.509l-3.146,1.443l-0.268-0.067l-3.401-2.518l-1.213,3.708l-1.053-0.531l1.53-4.675
	l0.544,0.103l3.702,2.763l2.755-1.25L-292.072,385.509z"/>
<path fill="#35BFC5" d="M-295.309,383.136l-0.328-1.114l2.795-0.329l0.317,1.103L-295.309,383.136z"/>
<path fill="#C9CBCF" d="M-301.646,394.163l12.68-1.768l0.339,0.8l-12.863,2.076L-301.646,394.163z M-288.561,395.813l-12.582,1.937
	l-0.154-1.099l12.612-1.885L-288.561,395.813z M-293.078,399.427l-7.145,1.052l-0.42-1.088l7.431-1.021L-293.078,399.427z"/>
<path fill="#FFD04A" d="M-300.78,386.682c0.603,0.035,1.157,0.566,1.241,1.186c0.084,0.618-0.333,1.095-0.933,1.066
	c-0.602-0.029-1.163-0.558-1.25-1.182C-301.809,387.127-301.386,386.648-300.78,386.682z"/>
<path fill="#FFD04A" d="M-299.213,382.295c0.598,0.046,1.147,0.588,1.229,1.211c0.082,0.622-0.332,1.093-0.927,1.054
	c-0.598-0.04-1.153-0.581-1.238-1.208C-300.234,382.723-299.814,382.249-299.213,382.295z"/>
<path fill="#FFD04A" d="M-295.643,385.329c0.578,0.037,1.108,0.562,1.185,1.171c0.076,0.607-0.326,1.073-0.902,1.041
	c-0.578-0.031-1.114-0.554-1.193-1.167C-296.633,385.76-296.224,385.291-295.643,385.329z"/>
<path fill="#FFD04A" d="M-292.703,384.157c0.565,0.039,1.08,0.562,1.153,1.165c0.073,0.602-0.321,1.062-0.884,1.028
	c-0.565-0.035-1.086-0.555-1.162-1.162C-293.672,384.579-293.271,384.117-292.703,384.157z"/>
<path fill="#F1F3F5" d="M-293.257,398.311c0.947-10.601,4.611-18.077,11.052-26.189c5.956,2.807,10.675,5.027,18.641,8.574
	c-6.859,6.557-10.591,15.884-10.333,24.382C-279.089,403.512-285.781,401.291-293.257,398.311L-293.257,398.311z"/>
<path fill="#C9CBCF" d="M-274.028,388.642c-3.789-2.019-7.608-3.626-11.696-5.093c0.221-0.361,0.45-0.718,0.688-1.069
	c3.357,1.194,7.381,2.898,11.669,5.133C-273.595,387.951-273.815,388.294-274.028,388.642z M-275.004,391.873
	c-3.873-2.121-7.9-3.917-11.939-5.278c0.18-0.382,0.367-0.761,0.562-1.136c4.002,1.311,8.004,3.123,11.917,5.331
	C-274.652,391.147-274.832,391.509-275.004,391.873z M-275.913,394.538c-3.763-1.772-7.807-3.36-11.945-4.738
	c0.076-0.461,0.16-0.919,0.251-1.372c4.162,1.371,8.265,3.052,12.133,4.988C-275.628,393.788-275.774,394.162-275.913,394.538z
	 M-280.872,396.01c-2.398-1.053-4.92-2.111-7.502-3.151c0.046-0.473,0.098-0.944,0.157-1.413c2.549,1.004,5.055,2.059,7.454,3.137
	C-280.806,395.058-280.842,395.534-280.872,396.01z"/>
<path fill="#ED6047" d="M-281.315,377.116L-281.315,377.116c3.805,1.177,7.527,2.415,11.378,5.069c-0.42,0.603-1.69,2.8-2.493,4.239
	c-4.042-2.4-7.848-3.695-11.679-5.192C-283.481,380.346-281.898,377.768-281.315,377.116z"/>
<path fill="#F1F3F5" d="M-271.263,355.296c-2.385-10.29-6.675-19.051-16.426-23.95c-7.165,3.2-10.17,5.628-15.143,10.73
	c7.634,5.499,12.577,14.154,13.49,22.542C-284.46,362.363-278.194,359.256-271.263,355.296L-271.263,355.296z"/>
<path fill="#C9CBCF" d="M-288.808,353.979c-0.189-0.35-0.384-0.698-0.586-1.042c3.532-2.436,7.33-4.655,11.228-6.577
	c0.152,0.433,0.297,0.871,0.434,1.314C-281.605,349.599-285.357,351.719-288.808,353.979z M-290.745,350.495
	c3.538-2.71,7.218-5.044,10.968-6.884c0.242,0.342,0.478,0.689,0.707,1.039c-3.778,1.896-7.485,4.216-10.997,6.835
	C-290.286,351.151-290.512,350.82-290.745,350.495z M-292.259,347.523c3.555-2.791,7.101-5.024,10.752-6.655
	c0.282,0.313,0.556,0.632,0.823,0.956c-3.666,1.668-7.248,3.897-10.785,6.619C-291.725,348.131-291.988,347.824-292.259,347.523z
	 M-294.089,345.395c3.529-3.026,6.92-5.351,10.515-6.995c0.327,0.276,0.646,0.559,0.955,0.849c-3.648,1.719-7.14,4.145-10.723,7.234
	C-293.583,346.114-293.832,345.751-294.089,345.395z M-296.026,343.23c3.417-3.139,6.556-5.44,10.13-7.121
	c0.381,0.229,0.751,0.468,1.111,0.716c-3.611,1.722-6.87,4.144-10.377,7.393C-295.441,343.88-295.729,343.551-296.026,343.23z
	 M-280.693,352.787c-2.392,1.378-4.723,2.766-6.932,4.132c-0.095-0.464-0.196-0.927-0.304-1.388
	c2.208-1.391,4.524-2.773,6.889-4.111C-280.918,351.872-280.803,352.328-280.693,352.787z"/>
<path fill="#C0C8A0" d="M-265.664,385.763l18.194,0.622l-12.285,11.816c0,0-1.712,5.268-9.019,4.353
	c-4.781-0.599-4.203-5.38-4.203-5.38L-265.664,385.763z"/>
<path fill="#E1E1AF" d="M-277.949,444.53l9.175,0.778l9.019-47.107l-13.222-1.027c0,0-9.337,2.668-11.503,19.994
	C-287.423,440.714-277.949,444.53-277.949,444.53z"/>
<path fill="#ECECBA" d="M-309.827,394.314l-3.421,45.863l35.299,4.353l1.711-16.324l1.399-0.622l-2.332-3.42l1.555-0.933
	l2.639-26.057L-309.827,394.314z"/>
<path fill="#E1E1AF" d="M-312.893,435.413l0.871-11.68l25.987,19.554l-0.241,0.217l-15.186-1.873L-312.893,435.413z"/>
<path fill="#E1E1AF" d="M-292.255,408.773l-5.754,5.13c0,0,2.373,1.167,4.821,2.798c3.078,2.052,6.375,3.887,6.375,3.887
	l5.909-10.105L-292.255,408.773z"/>
<path fill="#FFFFFF" d="M-291.478,403.176c0,0-1.809,2.979-2.643,4.197c-0.835,1.218-3.888,4.042-3.888,4.042
	s3.022,3.672,5.287,5.131c2.265,1.459,5.443,2.643,5.443,2.643s2.062-3.611,3.421-4.664c1.358-1.053,3.732-4.975,3.732-4.975
	s-4.475-1.415-6.22-2.177C-288.091,406.612-291.478,403.176-291.478,403.176z"/>
<path fill="#C9CBCF" d="M-285.102,411.882l-0.156,0.466c0,0-1.457,0.066-2.021-0.155c-0.564-0.221,0.353-1.382-0.156-1.399
	c-0.508-0.017-1.888,0.114-2.488,0c-0.6-0.115,1.02-1.218,0.467-1.244c-0.553-0.027-2.333,0.466-2.333,0.466l-0.622-0.466
	l2.022-1.866l0.622,0.311l-0.933,0.778c0,0,1.632-0.339,2.177,0c0.545,0.338-0.311,1.243-0.311,1.243s0.913-0.592,1.866,0
	c0.952,0.593-0.083,1.347,0.311,1.71C-286.264,412.09-285.102,411.882-285.102,411.882z M-290.664,411.315
	c0.686,0.41,0.248,1.131,0.61,1.684c0.361,0.553,1.22,0.421,1.22,0.421l-0.407,0.632c0,0-0.569,0.122-1.423-0.632
	c-0.855-0.753-0.407-1.473-0.407-1.473s-1.233,0.483-1.83,0.421c-0.597-0.062-1.22-0.632-1.22-0.632l0.61-0.631
	c0,0,0.842,0.425,1.423,0.421S-291.351,410.905-290.664,411.315z"/>
<path fill="#F5973F" d="M-272.817,447.018c-0.878,0.79-5.159-0.521-6.221-0.622c-1.061-0.101-0.619,1.19-2.799,0.777
	c-2.179-0.412-3.321-1.037-4.82-0.621c-1.5,0.416-4.053-0.699-5.287-2.022c-1.234-1.322-3.097-2.875-4.164-3.492
	c-0.758-0.438-10.059-6.497-17.058-11.247c-1.846-5.732,4.917-10.59,10.438-7.554c6.941,6.92,13.45,13.275,14.671,13.432
	c2.386,0.305,1.901-0.213,3.577-0.311c1.676-0.098,3.707-0.017,5.753-0.622c2.047-0.605,2.542-2.405,3.422-1.866
	c0.879,0.54,0.148,3.316-1.711,4.198c-1.859,0.882-2.665,1.923-2.644,2.798c0.022,0.876,3.642,4.098,5.132,4.664
	c1.49,0.567,3.266,0.467,3.266,0.467S-271.94,446.228-272.817,447.018z"/>
<path d="M-302.728,422.237c-1.335,0.679-3.606,1.908-5.544,3.326c-2.027,1.483-3.798,3.137-4.894,4.228
	c-2.842-1.928-5.305-3.641-6.661-4.675c-4.699-3.578-5.31-5.962-8.272-10.682s-19.875-16.09-26.202-24.473
	c-7.803-10.339,1.967-23.687,14.928-9.018c6.602,7.472,13.278,19.231,19.813,24.837
	C-316.368,408.517-309.352,415.634-302.728,422.237z"/>
<path fill="#27628A" d="M-322.057,419.42c-1.103-0.127-2.163-0.194-3.193-0.2c-0.332-0.537-0.659-1.096-1.005-1.693
	c1.985-0.131,4.033-0.077,6.162,0.168c4.814,0.554,8.454,0.283,11.987-0.832c0.437,0.437,0.878,0.877,1.321,1.32
	C-311.568,419.719-316.373,420.074-322.057,419.42z M-322.929,415.083c-1.709-0.198-3.316-0.251-4.863-0.155
	c-0.1-0.162-0.202-0.326-0.307-0.494c-0.205-0.327-0.48-0.687-0.811-1.075c2.537-0.317,5.172-0.321,7.945-0.002
	c3.568,0.411,6.491,0.368,9.204-0.135c0.451,0.447,0.912,0.905,1.379,1.37C-314.291,415.479-318.322,415.612-322.929,415.083z
	 M-323.817,410.67c-2.726-0.314-5.191-0.265-7.571,0.18c-0.469-0.433-0.972-0.884-1.505-1.352c3.481-0.811,7.123-1.005,11.04-0.554
	c2.202,0.254,4.158,0.334,5.971,0.24c0.501,0.483,1.027,0.994,1.575,1.53C-317.283,411.091-320.39,411.064-323.817,410.67z
	 M-324.689,406.332c-3.941-0.454-7.338-0.15-10.715,1.015c-0.493-0.415-0.998-0.838-1.515-1.268
	c4.43-1.551,9.077-2.062,14.194-1.473c0.721,0.083,1.416,0.148,2.088,0.194c0.359,0.343,0.719,0.672,1.077,0.98
	c0.29,0.248,0.613,0.534,0.963,0.852C-320.534,406.681-322.549,406.578-324.689,406.332z M-344.786,376.226
	c0.561,0.342,1.133,0.738,1.715,1.191c-0.974,0.412-1.954,0.895-2.951,1.455c-3.74,2.099-7.319,3.504-11.02,4.276
	c-0.049-0.572-0.052-1.132-0.012-1.675c2.848-0.637,5.585-1.767,8.552-3.433C-347.275,377.351-346.038,376.747-344.786,376.226z
	 M-325.562,401.994c-5.061-0.584-9.226,0.083-13.602,2.22c-0.512-0.425-1.029-0.854-1.548-1.287
	c4.956-2.293,10.123-3.248,15.873-2.78c0.581,0.718,1.161,1.41,1.741,2.069C-323.902,402.164-324.722,402.091-325.562,401.994z
	 M-347.629,382.378c2.239-1.257,4.509-2.236,6.846-2.931c0.423,0.422,0.85,0.872,1.281,1.354c-1.878,0.537-3.731,1.333-5.648,2.409
	c-3.632,2.039-7.113,3.423-10.702,4.208c-0.245-0.515-0.451-1.031-0.621-1.544C-353.52,385.25-350.698,384.1-347.629,382.378z
	 M-345.869,391.129c3.688-2.07,7.46-3.387,11.474-3.919c0.379,0.513,0.758,1.032,1.137,1.553c-3.508,0.249-6.718,1.281-10.131,3.198
	c-2.17,1.217-4.285,2.201-6.401,2.964c-0.461-0.448-0.907-0.893-1.337-1.334C-349.409,392.963-347.682,392.146-345.869,391.129z
	 M-344.997,395.467c4.331-2.431,8.779-3.825,13.599-4.125c0.408,0.569,0.817,1.138,1.225,1.706
	c-4.405-0.084-8.227,0.94-12.344,3.251c-1.262,0.708-2.505,1.335-3.741,1.888c-0.495-0.439-0.984-0.878-1.463-1.316
	C-346.828,396.454-345.924,395.987-344.997,395.467z M-344.124,399.805c4.988-2.8,10.13-4.225,15.818-4.186
	c0.476,0.648,0.952,1.288,1.427,1.916c-5.471-0.559-9.913,0.378-14.765,3.101c-0.365,0.205-0.729,0.402-1.091,0.593
	c-0.522-0.441-1.043-0.885-1.561-1.33C-344.238,399.867-344.182,399.837-344.124,399.805z M-346.757,386.716
	c3.003-1.685,6.062-2.872,9.262-3.542c0.381,0.471,0.761,0.954,1.142,1.445c-2.678,0.462-5.238,1.421-7.924,2.929
	c-3.032,1.702-5.959,2.948-8.931,3.77c-0.391-0.46-0.758-0.913-1.093-1.357c-0.013-0.017-0.024-0.033-0.036-0.05
	C-351.833,389.246-349.385,388.192-346.757,386.716z M-319.22,422.033c5.961,0.686,10.123,0.109,14.51-1.774
	c0.447,0.446,0.893,0.892,1.338,1.336c-5.651,2.305-11.123,2.933-17.812,2.163c-0.114-0.013-0.227-0.024-0.339-0.036
	c-0.739-0.661-1.351-1.294-1.886-1.926C-322.045,421.79-320.651,421.868-319.22,422.033z M-347.675,374.88
	c-2.906,1.567-5.727,2.712-8.596,3.465c0.407-0.876,0.958-1.643,1.635-2.259c1.201-0.44,2.407-0.972,3.643-1.601
	C-349.981,374.386-348.868,374.505-347.675,374.88z M-309.291,426.339c-0.847,0.668-1.631,1.345-2.316,1.969
	c-1.134,0.114-2.29,0.172-3.478,0.174c-1.06-0.728-2.03-1.403-2.864-1.995C-314.625,426.844-311.86,426.797-309.291,426.339z"/>
</svg>
