<?xml version="1.0" encoding="iso-8859-1"?>
<!-- Generator: Adobe Illustrator 19.0.0, SVG Export Plug-In . SVG Version: 6.00 Build 0)  -->
<svg version="1.1" id="Capa_1" xmlns="http://www.w3.org/2000/svg" xmlns:xlink="http://www.w3.org/1999/xlink" x="0px" y="0px"
	 viewBox="0 0 512 512" style="enable-background:new 0 0 512 512;" xml:space="preserve">
<g>
	<g>
		<g>
			<path d="M238.933,477.867h34.133c4.713,0,8.533-3.82,8.533-8.533s-3.821-8.533-8.533-8.533h-34.133
				c-4.713,0-8.533,3.82-8.533,8.533S234.221,477.867,238.933,477.867z"/>
			<path d="M264.533,34.133h-17.067c-4.713,0-8.533,3.82-8.533,8.533s3.82,8.533,8.533,8.533h17.067c4.713,0,8.533-3.82,8.533-8.533
				S269.246,34.133,264.533,34.133z"/>
			<path d="M469.333,102.4h-42.667V42.667C426.639,19.114,407.553,0.028,384,0H128c-23.553,0.028-42.639,19.114-42.667,42.667V179.2
				H42.667C19.114,179.228,0.028,198.314,0,221.867V307.2c0.028,20.265,14.283,37.724,34.133,41.804v52.063
				c-0.002,3.571,2.221,6.765,5.57,8.004c3.349,1.239,7.116,0.259,9.438-2.454l36.192-42.223v104.94
				C85.361,492.886,104.447,511.972,128,512h256c23.553-0.028,42.639-19.114,42.667-42.667v-181.74l36.192,42.223
				c2.323,2.71,6.088,3.687,9.436,2.449c3.348-1.238,5.571-4.429,5.572-7.999v-52.062c19.85-4.08,34.105-21.539,34.133-41.804
				v-85.333C511.972,121.514,492.886,102.428,469.333,102.4z M102.4,42.667c0.015-14.132,11.468-25.585,25.6-25.6h256
				c14.132,0.015,25.585,11.468,25.6,25.6v25.6H102.4V42.667z M102.4,85.333h307.2V102.4H247.467
				c-23.553,0.028-42.639,19.114-42.667,42.667V179.2H102.4V85.333z M93.867,332.8c-0.114,0-0.209,0.06-0.322,0.065
				c-0.586,0.055-1.164,0.172-1.726,0.348c-0.515,0.092-1.021,0.231-1.511,0.416c-0.404,0.227-0.789,0.486-1.151,0.776
				c-0.554,0.337-1.066,0.738-1.527,1.193c-0.07,0.077-0.169,0.106-0.237,0.185L51.2,378v-36.667
				c0.001-2.264-0.897-4.435-2.498-6.035s-3.772-2.499-6.035-2.498c-14.132-0.015-25.585-11.468-25.6-25.6v-85.333
				c0.015-14.132,11.468-25.585,25.6-25.6H204.8V230.4c0.028,23.553,19.114,42.639,42.667,42.667h42.667V307.2
				c-0.015,14.132-11.468,25.585-25.6,25.6H93.867z M409.6,469.333c-0.015,14.132-11.468,25.585-25.6,25.6H128
				c-14.132-0.015-25.585-11.468-25.6-25.6v-25.6h307.2V469.333z M409.6,426.667H102.4v-76.8h162.133
				c23.553-0.028,42.639-19.114,42.667-42.667v-34.133h102.4V426.667z M494.933,230.4c-0.015,14.132-11.468,25.585-25.6,25.6
				c-2.264-0.001-4.435,0.897-6.035,2.498s-2.499,3.772-2.498,6.035V301.2l-36.192-42.217c-0.068-0.08-0.168-0.11-0.239-0.187
				c-1.624-1.531-3.702-2.49-5.92-2.733c-0.111-0.004-0.204-0.064-0.316-0.064H247.467c-14.132-0.015-25.585-11.468-25.6-25.6
				v-85.333c0.015-14.132,11.468-25.585,25.6-25.6h221.867c14.132,0.015,25.585,11.468,25.6,25.6V230.4z"/>
			<path d="M273.067,153.6c-18.851,0-34.133,15.282-34.133,34.133s15.282,34.133,34.133,34.133
				c18.851,0,34.133-15.282,34.133-34.133C307.181,168.89,291.91,153.619,273.067,153.6z M273.067,204.8
				c-9.426,0-17.067-7.641-17.067-17.067s7.641-17.067,17.067-17.067c9.426,0,17.067,7.641,17.067,17.067
				C290.121,197.154,282.487,204.788,273.067,204.8z"/>
			<path d="M358.4,153.6c-18.851,0-34.133,15.282-34.133,34.133s15.282,34.133,34.133,34.133s34.133-15.282,34.133-34.133
				C392.515,168.89,377.244,153.619,358.4,153.6z M358.4,204.8c-9.426,0-17.067-7.641-17.067-17.067s7.641-17.067,17.067-17.067
				s17.067,7.641,17.067,17.067C375.454,197.154,367.821,204.788,358.4,204.8z"/>
			<path d="M443.733,153.6c-18.851,0-34.133,15.282-34.133,34.133s15.282,34.133,34.133,34.133
				c18.851,0,34.133-15.282,34.133-34.133C477.848,168.89,462.577,153.619,443.733,153.6z M443.733,204.8
				c-9.426,0-17.067-7.641-17.067-17.067s7.641-17.067,17.067-17.067s17.067,7.641,17.067,17.067
				C460.788,197.154,453.154,204.788,443.733,204.8z"/>
		</g>
	</g>
</g>
<g>
</g>
<g>
</g>
<g>
</g>
<g>
</g>
<g>
</g>
<g>
</g>
<g>
</g>
<g>
</g>
<g>
</g>
<g>
</g>
<g>
</g>
<g>
</g>
<g>
</g>
<g>
</g>
<g>
</g>
</svg>
