<svg xmlns="http://www.w3.org/2000/svg" xmlns:xlink="http://www.w3.org/1999/xlink" version="1.1" x="0px" y="0px" viewBox="0 0 100 100" enable-background="new 0 0 100 100" xml:space="preserve"><g display="none"></g><g><path stroke="#ff0000" stroke-width="0" d="M89.919,44.546c-2.37-16.518-17.745-29.271-36.372-29.271c-7.478,0-14.422,2.068-20.223,5.596l-6.157-4.791   c-1.086-0.845-2.67-0.071-2.67,1.305v11.026c-1.147,1.364-2.196,2.801-3.107,4.319c-1.772,2.951-4.672,5.112-8.14,5.783   l-5.206,1.008C6.274,39.864,5,41.363,5,43.104v11.773c0,1.741,1.274,3.24,3.044,3.583l5.206,1.008   c3.467,0.671,6.368,2.833,8.14,5.783c2.356,3.923,5.539,7.077,9.331,9.486c-0.004,0.063-0.019,0.124-0.019,0.188v6.49   c0,1.721,1.395,3.115,3.115,3.115h4.238c1.721,0,3.115-1.395,3.115-3.115v-2.242c3.867,0.996,8.033,1.489,12.376,1.489   c4.537,0,8.88-0.659,12.891-1.883v2.831c0,1.721,1.395,3.115,3.115,3.115h4.238c1.721,0,3.115-1.395,3.115-3.115v-6.49   c0-0.419-0.085-0.817-0.235-1.182c7.088-4.804,11.978-11.924,13.242-20.502C92.799,53.077,95,51.226,95,48.991   C95,46.756,92.802,44.906,89.919,44.546z M57.693,64.022l-0.745,0.199v3.446c0,0.824-0.675,1.49-1.49,1.49h-3.585   c-0.824,0-1.49-0.665-1.49-1.49v-3.158l-0.884-0.089c-2.741-0.308-5.323-1.053-7.062-2.056c-0.675-0.377-0.934-1.192-0.626-1.897   l1.371-3.049c0.169-0.377,0.487-0.665,0.874-0.805c0.159-0.05,0.318-0.079,0.477-0.079c0.248,0,0.487,0.06,0.705,0.179   c2.086,1.112,4.886,1.778,7.489,1.778c3.059,0,5.284-1.251,5.284-2.97c0-1.112-0.646-2.453-5.403-4.003   c-5.155-1.619-10.409-3.983-10.409-9.286c0-4.022,2.93-7.171,7.836-8.412l0.745-0.189v-3.327c0-0.814,0.675-1.48,1.49-1.48h3.526   c0.824,0,1.49,0.665,1.49,1.48v2.989l0.874,0.109c2.096,0.248,3.953,0.765,5.661,1.569c0.358,0.169,0.636,0.467,0.765,0.844   c0.139,0.367,0.119,0.785-0.05,1.132l-1.42,3.009c-0.248,0.517-0.775,0.854-1.351,0.854c-0.208,0-0.417-0.05-0.616-0.139   c-0.924-0.427-3.089-1.41-6.545-1.41c-3.139,0-4.539,1.212-4.539,2.423c0,1.351,1.46,2.264,6.029,3.774   c4.867,1.589,9.833,3.983,9.833,9.743C65.926,58.312,63.771,62.493,57.693,64.022z"></path></g></svg>